<?xml version="1.0" encoding="utf-8"?>
<!-- Generator: Adobe Illustrator 22.1.0, SVG Export Plug-In . SVG Version: 6.00 Build 0)  -->
<svg version="1.1" id="Layer_1" xmlns="http://www.w3.org/2000/svg" xmlns:xlink="http://www.w3.org/1999/xlink" x="0px" y="0px"
	 viewBox="0 0 512 512" style="enable-background:new 0 0 512 512;" xml:space="preserve">
<g>
	<title>bootstrap</title>
	<g>
		<path d="M406,31H106c-41.4,0.1-74.9,33.6-75,75v300c0,41.2,33.8,75,75,75h300c41.2,0,75-33.8,75-75V106C481,64.8,447.2,31,406,31z
			 M365,347.1c-3.7,9-9.7,17-17.3,23.1c-7.9,6.4-17.9,11.6-30.2,15.4c-12.2,3.8-26.8,5.7-43.7,5.7H153.2V128.8h127.5
			c23.6,0,42.5,5.3,56.6,16.1c14.3,10.8,21.3,27.1,21.3,48.9c0,13.3-3.2,24.5-9.7,33.9c-6.5,9.4-15.8,16.6-27.8,21.7v0.9
			c16,3.4,28.4,11,36.5,22.8c8.1,11.8,12.4,26.7,12.4,44.7c0,10.1-2,19.7-5.6,28.6L365,347.1L365,347.1z M312.9,282.4
			c-7.6-7-18.5-10.5-32.4-10.5h-81.1v81.9h81.3c13.8,0,24.8-3.6,32.4-10.8c7.7-7.3,11.6-17.6,11.6-30.8c-0.1-13-3.9-23-11.6-29.8
			L312.9,282.4L312.9,282.4z M301.7,229.4c7.4-6.3,11.1-15.3,11.1-27.1c0-13.2-3.3-22.6-10-27.9c-6.6-5.3-16.1-8.1-28.6-8.1h-75
			v72.4h75C285.1,238.7,294.5,235.5,301.7,229.4L301.7,229.4z"/>
	</g>
</g>
</svg>
